<svg width="80" height="80" viewBox="0 0 80 80" fill="none" xmlns="http://www.w3.org/2000/svg">
<g id="drawing1 1">
<g id="layer1">
<g id="text7065">
<path id="path8590" fill-rule="evenodd" clip-rule="evenodd" d="M1.45475 3.21846C3.41428 1.89515 51.8392 2.4048 53.0441 3.21846C54.2489 4.03211 53.8139 12.4893 53.0441 13.0082C52.2742 13.5271 18.215 12.1494 17.0125 12.9598C15.81 13.7702 15.9536 21.3677 17.0125 22.0828C18.0714 22.7979 39.6667 21.1901 40.9886 22.0828C42.3106 22.9755 42.2044 28.2068 40.9886 29.0279C39.7728 29.8489 18.2268 28.2078 17.0125 29.0279C15.7982 29.8479 18.0538 51.4023 17.0125 52.6203C16.0154 53.7866 2.90337 53.5985 1.45475 52.6203C-0.44402 51.338 -0.525386 4.55567 1.45475 3.21846V3.21846Z" fill="url(#paint0_linear_16_156)"/>
</g>
<g id="text7849">
<path id="path8584" d="M44.5909 44.8689C43.5323 45.2816 43.4942 65.202 44.5909 65.9426C45.6876 66.6833 46.8128 66.67 51.3237 66.1903C55.8347 65.7106 60.6392 65.0137 64.9659 62.7001C67.1581 61.5278 68.0676 58.4025 68.5186 57.0479C68.8713 55.1815 68.5851 54.2887 68.5076 53.1046C68.3229 50.1366 66.5095 49.2283 65.1386 48.3025C61.4943 46.0954 53.9031 45.2804 49.7831 44.977C49.7831 44.977 45.6494 44.4562 44.5909 44.8689V44.8689ZM28.0862 35.5948C29.5347 34.6166 43.7708 35.2924 45.4083 35.3591C59.4308 35.9306 66.0047 37.2802 71.6028 40.651C77.201 44.0032 80 49.2549 80 56.4062C80 63.5948 77.1872 68.8745 71.5614 72.2453C65.9357 75.6161 56.2244 76.5793 51.215 77.0743C46.2055 77.5693 28.8735 77.8331 28.0862 77.3015C27.2989 76.7698 26.6378 36.5729 28.0862 35.5948V35.5948Z" fill="url(#paint1_linear_16_156)"/>
</g>
</g>
</g>
<defs>
<linearGradient id="paint0_linear_16_156" x1="44.0433" y1="28.5946" x2="0.336162" y2="28.2614" gradientUnits="userSpaceOnUse">
<stop stop-color="#ffffff"/>
<stop offset="1" stop-color="#ffffff"/>
</linearGradient>
<linearGradient id="paint1_linear_16_156" x1="70.4355" y1="56.8975" x2="27.5609" y2="56.5128" gradientUnits="userSpaceOnUse">
<stop stop-color="#ffffff"/>
<stop offset="1" stop-color="#ffffff"/>
</linearGradient>
</defs>
</svg>
